<svg width="24" height="20" viewBox="0 0 24 20" fill="none" xmlns="http://www.w3.org/2000/svg">
<mask id="path-1-inside-1_102_15" fill="white">
<path fill-rule="evenodd" clip-rule="evenodd" d="M12.0001 19.9999L12 19.9999L12 19.9999L2.81939 11.3311L2.81943 11.331L1.90142 10.4642C-0.633725 8.07036 -0.633725 4.18918 1.90142 1.79534C4.43657 -0.598496 8.54685 -0.598496 11.082 1.79534L12 2.66218L12.918 1.79533C15.4532 -0.598507 19.5635 -0.598507 22.0986 1.79533C24.6338 4.18917 24.6338 8.07035 22.0986 10.4642L21.1806 11.331L21.1806 11.3311L12.0001 19.9999Z"/>
</mask>
<path fill-rule="evenodd" clip-rule="evenodd" d="M12.0001 19.9999L12 19.9999L12 19.9999L2.81939 11.3311L2.81943 11.331L1.90142 10.4642C-0.633725 8.07036 -0.633725 4.18918 1.90142 1.79534C4.43657 -0.598496 8.54685 -0.598496 11.082 1.79534L12 2.66218L12.918 1.79533C15.4532 -0.598507 19.5635 -0.598507 22.0986 1.79533C24.6338 4.18917 24.6338 8.07035 22.0986 10.4642L21.1806 11.331L21.1806 11.3311L12.0001 19.9999Z" fill="white"/>
<path d="M12 19.9999L12.6925 19.2785L12.0121 18.6253L11.3202 19.2665L12 19.9999ZM12.0001 19.9999L11.3075 20.7213L11.9944 21.3807L12.6866 20.727L12.0001 19.9999ZM12 19.9999L11.3134 20.727L11.9936 21.3693L12.6797 20.7334L12 19.9999ZM2.81939 11.3311L2.13345 10.6034L1.3622 11.3305L2.13284 12.0582L2.81939 11.3311ZM2.81943 11.331L3.50537 12.0587L4.27663 11.3317L3.50598 10.604L2.81943 11.331ZM1.90142 10.4642L2.58798 9.73712L2.58798 9.73712L1.90142 10.4642ZM1.90142 1.79534L1.21487 1.06826L1.90142 1.79534ZM11.082 1.79534L11.7686 1.06826L11.7686 1.06826L11.082 1.79534ZM12 2.66218L11.3135 3.38926L12 4.03755L12.6866 3.38926L12 2.66218ZM12.918 1.79533L12.2315 1.06825L12.2315 1.06825L12.918 1.79533ZM22.0986 1.79533L22.7852 1.06825L22.7852 1.06825L22.0986 1.79533ZM22.0986 10.4642L22.7852 11.1913L22.7852 11.1913L22.0986 10.4642ZM21.1806 11.331L20.494 10.604L19.7304 11.3251L20.4881 12.0524L21.1806 11.331ZM21.1806 11.3311L21.8672 12.0582L22.6308 11.3371L21.8732 10.6097L21.1806 11.3311ZM11.3075 20.7213L11.3075 20.7213L12.6926 19.2786L12.6925 19.2785L11.3075 20.7213ZM12.6797 20.7334L12.6798 20.7333L11.3202 19.2665L11.3202 19.2665L12.6797 20.7334ZM2.13284 12.0582L11.3134 20.727L12.6865 19.2729L3.50595 10.604L2.13284 12.0582ZM2.13349 10.6034L2.13345 10.6034L3.50534 12.0587L3.50537 12.0587L2.13349 10.6034ZM1.21487 11.1913L2.13288 12.0581L3.50598 10.604L2.58798 9.73712L1.21487 11.1913ZM1.21487 1.06826C-1.73821 3.85674 -1.73821 8.40281 1.21487 11.1913L2.58798 9.73712C0.470758 7.73792 0.470757 4.52163 2.58797 2.52242L1.21487 1.06826ZM11.7686 1.06826C8.84803 -1.68947 4.13539 -1.68947 1.21487 1.06826L2.58797 2.52242C4.73775 0.492478 8.24567 0.492477 10.3954 2.52242L11.7686 1.06826ZM12.6866 1.9351L11.7686 1.06826L10.3954 2.52242L11.3135 3.38926L12.6866 1.9351ZM12.2315 1.06825L11.3135 1.9351L12.6866 3.38926L13.6046 2.52241L12.2315 1.06825ZM22.7852 1.06825C19.8646 -1.68948 15.152 -1.68948 12.2315 1.06825L13.6046 2.52241C15.7544 0.492466 19.2623 0.492467 21.4121 2.52241L22.7852 1.06825ZM22.7852 11.1913C25.7382 8.4028 25.7382 3.85673 22.7852 1.06825L21.4121 2.52241C23.5293 4.52162 23.5293 7.73791 21.4121 9.73711L22.7852 11.1913ZM21.8671 12.0581L22.7852 11.1913L21.4121 9.73711L20.494 10.604L21.8671 12.0581ZM21.8732 10.6097L21.8731 10.6097L20.4881 12.0524L20.4881 12.0525L21.8732 10.6097ZM12.6866 20.727L21.8672 12.0582L20.4941 10.604L11.3135 19.2729L12.6866 20.727Z" fill="#222222" mask="url(#path-1-inside-1_102_15)"/>
</svg>
