<svg width="20" height="17" viewBox="0 0 20 17" fill="none" xmlns="http://www.w3.org/2000/svg">
<mask id="path-1-inside-1_102_15" fill="white">
<path fill-rule="evenodd" clip-rule="evenodd" d="M2.92892 9.24264L2.22181 8.53553C0.269192 6.58291 0.269191 3.41709 2.22181 1.46447C4.17443 -0.488155 7.34026 -0.488155 9.29288 1.46447L9.99999 2.17157L10.7071 1.46447C12.6597 -0.488156 15.8255 -0.488156 17.7782 1.46447C19.7308 3.41709 19.7308 6.58291 17.7782 8.53553L17.0711 9.24264L9.99999 16.3137L2.92892 9.24264Z"/>
</mask>
<path fill-rule="evenodd" clip-rule="evenodd" d="M2.92892 9.24264L2.22181 8.53553C0.269192 6.58291 0.269191 3.41709 2.22181 1.46447C4.17443 -0.488155 7.34026 -0.488155 9.29288 1.46447L9.99999 2.17157L10.7071 1.46447C12.6597 -0.488156 15.8255 -0.488156 17.7782 1.46447C19.7308 3.41709 19.7308 6.58291 17.7782 8.53553L17.0711 9.24264L9.99999 16.3137L2.92892 9.24264Z" fill="white"/>
<path d="M2.22181 8.53553L1.51471 9.24264L1.51471 9.24264L2.22181 8.53553ZM2.92892 9.24264L3.63603 8.53553L3.63603 8.53553L2.92892 9.24264ZM2.22181 1.46447L2.92892 2.17157L2.92892 2.17157L2.22181 1.46447ZM9.29288 1.46447L8.58577 2.17157L8.58577 2.17157L9.29288 1.46447ZM9.99999 2.17157L9.29288 2.87868L9.99999 3.58579L10.7071 2.87868L9.99999 2.17157ZM10.7071 1.46447L11.4142 2.17157L11.4142 2.17157L10.7071 1.46447ZM17.7782 1.46447L17.0711 2.17157L17.0711 2.17157L17.7782 1.46447ZM17.7782 8.53553L18.4853 9.24264L18.4853 9.24264L17.7782 8.53553ZM17.0711 9.24264L16.364 8.53553L16.3639 8.53553L17.0711 9.24264ZM9.99999 16.3137L9.29288 17.0208L9.99999 17.7279L10.7071 17.0208L9.99999 16.3137ZM1.51471 9.24264L2.22181 9.94975L3.63603 8.53553L2.92892 7.82843L1.51471 9.24264ZM1.51471 0.757359C-0.82844 3.10051 -0.828439 6.8995 1.51471 9.24264L2.92892 7.82843C1.36682 6.26633 1.36682 3.73367 2.92892 2.17157L1.51471 0.757359ZM9.99999 0.757359C7.65684 -1.58579 3.85785 -1.58579 1.51471 0.757359L2.92892 2.17157C4.49102 0.609476 7.02368 0.609476 8.58577 2.17157L9.99999 0.757359ZM10.7071 1.46447L9.99999 0.757359L8.58577 2.17157L9.29288 2.87868L10.7071 1.46447ZM9.99999 0.757359L9.29288 1.46447L10.7071 2.87868L11.4142 2.17157L9.99999 0.757359ZM18.4853 0.757358C16.1421 -1.58579 12.3431 -1.58579 9.99999 0.757359L11.4142 2.17157C12.9763 0.609475 15.509 0.609475 17.0711 2.17157L18.4853 0.757358ZM18.4853 9.24264C20.8284 6.89949 20.8284 3.1005 18.4853 0.757358L17.0711 2.17157C18.6332 3.73367 18.6332 6.26633 17.0711 7.82843L18.4853 9.24264ZM17.7782 9.94975L18.4853 9.24264L17.0711 7.82843L16.364 8.53553L17.7782 9.94975ZM10.7071 17.0208L17.7782 9.94975L16.3639 8.53553L9.29288 15.6066L10.7071 17.0208ZM2.22181 9.94975L9.29288 17.0208L10.7071 15.6066L3.63603 8.53553L2.22181 9.94975Z" fill="black" mask="url(#path-1-inside-1_102_15)"/>
</svg>
